<mxfile host="app.diagrams.net" modified="2023-10-10T10:15:22.317Z" agent="Mozilla/5.0 (Windows NT 10.0; Win64; x64) AppleWebKit/537.36 (KHTML, like Gecko) Chrome/116.0.0.0 Safari/537.36" etag="XnlLev8w9Nry_t5et0_p" version="22.0.4" type="device">
  <diagram id="1YZkVDQkq2lsI2-UdFle" name="Страница — 1">
    <mxGraphModel dx="840" dy="434" grid="1" gridSize="10" guides="1" tooltips="1" connect="1" arrows="1" fold="1" page="1" pageScale="1" pageWidth="827" pageHeight="1169" math="0" shadow="0">
      <root>
        <mxCell id="0" />
        <mxCell id="1" parent="0" />
        <mxCell id="vsbV7NBmptpupJyhPPDP-6" value="" style="edgeStyle=orthogonalEdgeStyle;rounded=0;orthogonalLoop=1;jettySize=auto;html=1;" edge="1" parent="1" source="vsbV7NBmptpupJyhPPDP-4" target="vsbV7NBmptpupJyhPPDP-5">
          <mxGeometry relative="1" as="geometry" />
        </mxCell>
        <mxCell id="vsbV7NBmptpupJyhPPDP-4" value="1" style="rhombus;whiteSpace=wrap;html=1;" vertex="1" parent="1">
          <mxGeometry x="140" y="70" width="80" height="80" as="geometry" />
        </mxCell>
        <mxCell id="vsbV7NBmptpupJyhPPDP-8" value="" style="edgeStyle=orthogonalEdgeStyle;rounded=0;orthogonalLoop=1;jettySize=auto;html=1;" edge="1" parent="1" source="vsbV7NBmptpupJyhPPDP-5" target="vsbV7NBmptpupJyhPPDP-7">
          <mxGeometry relative="1" as="geometry" />
        </mxCell>
        <mxCell id="vsbV7NBmptpupJyhPPDP-5" value="Получить текущее состояние кнопки" style="rounded=0;whiteSpace=wrap;html=1;" vertex="1" parent="1">
          <mxGeometry x="320" y="80" width="120" height="60" as="geometry" />
        </mxCell>
        <mxCell id="vsbV7NBmptpupJyhPPDP-11" value="" style="edgeStyle=orthogonalEdgeStyle;rounded=0;orthogonalLoop=1;jettySize=auto;html=1;entryX=0.5;entryY=0;entryDx=0;entryDy=0;" edge="1" parent="1" source="vsbV7NBmptpupJyhPPDP-7" target="vsbV7NBmptpupJyhPPDP-9">
          <mxGeometry relative="1" as="geometry">
            <mxPoint x="500" y="240" as="targetPoint" />
            <Array as="points">
              <mxPoint x="540" y="220" />
              <mxPoint x="540" y="220" />
            </Array>
          </mxGeometry>
        </mxCell>
        <mxCell id="vsbV7NBmptpupJyhPPDP-13" value="" style="edgeStyle=orthogonalEdgeStyle;rounded=0;orthogonalLoop=1;jettySize=auto;html=1;entryX=0.5;entryY=0;entryDx=0;entryDy=0;" edge="1" parent="1" source="vsbV7NBmptpupJyhPPDP-7" target="vsbV7NBmptpupJyhPPDP-12">
          <mxGeometry relative="1" as="geometry">
            <Array as="points">
              <mxPoint x="240" y="220" />
              <mxPoint x="240" y="220" />
            </Array>
          </mxGeometry>
        </mxCell>
        <mxCell id="vsbV7NBmptpupJyhPPDP-7" value="Кнопка нажата?" style="rhombus;whiteSpace=wrap;html=1;rounded=0;" vertex="1" parent="1">
          <mxGeometry x="340" y="180" width="80" height="80" as="geometry" />
        </mxCell>
        <mxCell id="vsbV7NBmptpupJyhPPDP-30" value="" style="edgeStyle=orthogonalEdgeStyle;rounded=0;orthogonalLoop=1;jettySize=auto;html=1;" edge="1" parent="1" source="vsbV7NBmptpupJyhPPDP-9">
          <mxGeometry relative="1" as="geometry">
            <mxPoint x="899" y="320" as="targetPoint" />
            <Array as="points">
              <mxPoint x="900" y="275" />
              <mxPoint x="900" y="300" />
              <mxPoint x="899" y="300" />
            </Array>
          </mxGeometry>
        </mxCell>
        <mxCell id="vsbV7NBmptpupJyhPPDP-33" value="" style="edgeStyle=orthogonalEdgeStyle;rounded=0;orthogonalLoop=1;jettySize=auto;html=1;entryX=0.5;entryY=0;entryDx=0;entryDy=0;" edge="1" parent="1" source="vsbV7NBmptpupJyhPPDP-9" target="vsbV7NBmptpupJyhPPDP-32">
          <mxGeometry relative="1" as="geometry" />
        </mxCell>
        <mxCell id="vsbV7NBmptpupJyhPPDP-9" value="Ждем, что кнопку отпустят?" style="rhombus;whiteSpace=wrap;html=1;" vertex="1" parent="1">
          <mxGeometry x="630" y="220" width="110" height="110" as="geometry" />
        </mxCell>
        <mxCell id="vsbV7NBmptpupJyhPPDP-17" value="" style="edgeStyle=orthogonalEdgeStyle;rounded=0;orthogonalLoop=1;jettySize=auto;html=1;entryX=0;entryY=0.5;entryDx=0;entryDy=0;exitX=0;exitY=0.5;exitDx=0;exitDy=0;" edge="1" parent="1" source="vsbV7NBmptpupJyhPPDP-12" target="vsbV7NBmptpupJyhPPDP-4">
          <mxGeometry relative="1" as="geometry">
            <mxPoint x="45" y="275" as="targetPoint" />
            <Array as="points">
              <mxPoint x="100" y="275" />
              <mxPoint x="100" y="110" />
            </Array>
          </mxGeometry>
        </mxCell>
        <mxCell id="vsbV7NBmptpupJyhPPDP-24" value="" style="edgeStyle=orthogonalEdgeStyle;rounded=0;orthogonalLoop=1;jettySize=auto;html=1;" edge="1" parent="1" source="vsbV7NBmptpupJyhPPDP-12">
          <mxGeometry relative="1" as="geometry">
            <mxPoint x="295" y="340" as="targetPoint" />
          </mxGeometry>
        </mxCell>
        <mxCell id="vsbV7NBmptpupJyhPPDP-12" value="Ждем, что кнопку отпустят?" style="rhombus;whiteSpace=wrap;html=1;" vertex="1" parent="1">
          <mxGeometry x="140" y="220" width="110" height="110" as="geometry" />
        </mxCell>
        <mxCell id="vsbV7NBmptpupJyhPPDP-14" value="Да" style="text;html=1;strokeColor=none;fillColor=none;align=center;verticalAlign=middle;whiteSpace=wrap;rounded=0;" vertex="1" parent="1">
          <mxGeometry x="190" y="190" width="60" height="30" as="geometry" />
        </mxCell>
        <mxCell id="vsbV7NBmptpupJyhPPDP-15" value="Нет" style="text;html=1;strokeColor=none;fillColor=none;align=center;verticalAlign=middle;whiteSpace=wrap;rounded=0;" vertex="1" parent="1">
          <mxGeometry x="620" y="190" width="60" height="30" as="geometry" />
        </mxCell>
        <mxCell id="vsbV7NBmptpupJyhPPDP-18" value="Да" style="text;html=1;strokeColor=none;fillColor=none;align=center;verticalAlign=middle;whiteSpace=wrap;rounded=0;" vertex="1" parent="1">
          <mxGeometry x="110" y="220" width="60" height="30" as="geometry" />
        </mxCell>
        <mxCell id="vsbV7NBmptpupJyhPPDP-28" value="" style="edgeStyle=orthogonalEdgeStyle;rounded=0;orthogonalLoop=1;jettySize=auto;html=1;endArrow=none;endFill=0;" edge="1" parent="1" source="vsbV7NBmptpupJyhPPDP-20">
          <mxGeometry relative="1" as="geometry">
            <mxPoint x="100" y="270" as="targetPoint" />
          </mxGeometry>
        </mxCell>
        <mxCell id="vsbV7NBmptpupJyhPPDP-20" value="1. Переходим в состояние ожидания, что кнопку отпустят&lt;br&gt;2. Сбрасываем счетчик длительности состояния" style="rounded=0;whiteSpace=wrap;html=1;" vertex="1" parent="1">
          <mxGeometry x="240" y="340" width="120" height="130" as="geometry" />
        </mxCell>
        <mxCell id="vsbV7NBmptpupJyhPPDP-25" value="Нет" style="text;html=1;strokeColor=none;fillColor=none;align=center;verticalAlign=middle;whiteSpace=wrap;rounded=0;" vertex="1" parent="1">
          <mxGeometry x="240" y="250" width="60" height="30" as="geometry" />
        </mxCell>
        <mxCell id="vsbV7NBmptpupJyhPPDP-41" value="" style="edgeStyle=orthogonalEdgeStyle;rounded=0;orthogonalLoop=1;jettySize=auto;html=1;" edge="1" parent="1" source="vsbV7NBmptpupJyhPPDP-32" target="vsbV7NBmptpupJyhPPDP-40">
          <mxGeometry relative="1" as="geometry" />
        </mxCell>
        <mxCell id="vsbV7NBmptpupJyhPPDP-32" value="1. Переходим в состояние, что не ждем что кнопку отпустят&amp;nbsp;" style="whiteSpace=wrap;html=1;" vertex="1" parent="1">
          <mxGeometry x="460" y="320" width="120" height="60" as="geometry" />
        </mxCell>
        <mxCell id="vsbV7NBmptpupJyhPPDP-34" value="Да" style="text;html=1;strokeColor=none;fillColor=none;align=center;verticalAlign=middle;whiteSpace=wrap;rounded=0;" vertex="1" parent="1">
          <mxGeometry x="510" y="250" width="60" height="30" as="geometry" />
        </mxCell>
        <mxCell id="vsbV7NBmptpupJyhPPDP-35" value="Нет" style="text;html=1;strokeColor=none;fillColor=none;align=center;verticalAlign=middle;whiteSpace=wrap;rounded=0;" vertex="1" parent="1">
          <mxGeometry x="850" y="250" width="60" height="30" as="geometry" />
        </mxCell>
        <mxCell id="vsbV7NBmptpupJyhPPDP-38" value="" style="edgeStyle=orthogonalEdgeStyle;rounded=0;orthogonalLoop=1;jettySize=auto;html=1;exitX=0;exitY=0.5;exitDx=0;exitDy=0;" edge="1" parent="1" source="vsbV7NBmptpupJyhPPDP-36" target="vsbV7NBmptpupJyhPPDP-37">
          <mxGeometry relative="1" as="geometry">
            <mxPoint x="820" y="380" as="sourcePoint" />
          </mxGeometry>
        </mxCell>
        <mxCell id="vsbV7NBmptpupJyhPPDP-59" value="" style="edgeStyle=orthogonalEdgeStyle;rounded=0;orthogonalLoop=1;jettySize=auto;html=1;endArrow=none;endFill=0;" edge="1" parent="1" source="vsbV7NBmptpupJyhPPDP-36">
          <mxGeometry relative="1" as="geometry">
            <mxPoint x="820" y="990" as="targetPoint" />
            <Array as="points">
              <mxPoint x="1030" y="380" />
              <mxPoint x="1030" y="990" />
            </Array>
          </mxGeometry>
        </mxCell>
        <mxCell id="vsbV7NBmptpupJyhPPDP-36" value="Пауза длинная и есть что вывести?" style="rhombus;whiteSpace=wrap;html=1;" vertex="1" parent="1">
          <mxGeometry x="840" y="320" width="120" height="120" as="geometry" />
        </mxCell>
        <mxCell id="vsbV7NBmptpupJyhPPDP-66" value="" style="edgeStyle=orthogonalEdgeStyle;rounded=0;orthogonalLoop=1;jettySize=auto;html=1;endArrow=none;endFill=0;" edge="1" parent="1" source="vsbV7NBmptpupJyhPPDP-37">
          <mxGeometry relative="1" as="geometry">
            <mxPoint x="610" y="990" as="targetPoint" />
            <Array as="points">
              <mxPoint x="820" y="990" />
            </Array>
          </mxGeometry>
        </mxCell>
        <mxCell id="vsbV7NBmptpupJyhPPDP-37" value="1. Переходим в режим вывода&lt;br&gt;2. Выводим сообщение и удаляем его из памяти&lt;br&gt;3. Переходим в режим ввода" style="whiteSpace=wrap;html=1;" vertex="1" parent="1">
          <mxGeometry x="760" y="500" width="120" height="140" as="geometry" />
        </mxCell>
        <mxCell id="vsbV7NBmptpupJyhPPDP-39" value="Да" style="text;html=1;strokeColor=none;fillColor=none;align=center;verticalAlign=middle;whiteSpace=wrap;rounded=0;" vertex="1" parent="1">
          <mxGeometry x="800" y="350" width="60" height="30" as="geometry" />
        </mxCell>
        <mxCell id="vsbV7NBmptpupJyhPPDP-42" value="" style="edgeStyle=orthogonalEdgeStyle;rounded=0;orthogonalLoop=1;jettySize=auto;html=1;" edge="1" parent="1" source="vsbV7NBmptpupJyhPPDP-40">
          <mxGeometry relative="1" as="geometry">
            <mxPoint x="390" y="570" as="targetPoint" />
          </mxGeometry>
        </mxCell>
        <mxCell id="vsbV7NBmptpupJyhPPDP-47" value="" style="edgeStyle=orthogonalEdgeStyle;rounded=0;orthogonalLoop=1;jettySize=auto;html=1;" edge="1" parent="1" source="vsbV7NBmptpupJyhPPDP-40" target="vsbV7NBmptpupJyhPPDP-46">
          <mxGeometry relative="1" as="geometry" />
        </mxCell>
        <mxCell id="vsbV7NBmptpupJyhPPDP-40" value="Кнопка была нажата дольше границы между точкой и тире?" style="rhombus;whiteSpace=wrap;html=1;" vertex="1" parent="1">
          <mxGeometry x="450" y="430" width="140" height="130" as="geometry" />
        </mxCell>
        <mxCell id="vsbV7NBmptpupJyhPPDP-51" value="" style="edgeStyle=orthogonalEdgeStyle;rounded=0;orthogonalLoop=1;jettySize=auto;html=1;entryX=0.5;entryY=0;entryDx=0;entryDy=0;exitX=0.5;exitY=1;exitDx=0;exitDy=0;" edge="1" parent="1" source="vsbV7NBmptpupJyhPPDP-44" target="vsbV7NBmptpupJyhPPDP-49">
          <mxGeometry relative="1" as="geometry">
            <mxPoint x="390" y="710" as="targetPoint" />
          </mxGeometry>
        </mxCell>
        <mxCell id="vsbV7NBmptpupJyhPPDP-44" value="1. Записываем в буфер тире&lt;br&gt;2. Мигаем красным светодиодом" style="rounded=0;whiteSpace=wrap;html=1;" vertex="1" parent="1">
          <mxGeometry x="330" y="570" width="120" height="60" as="geometry" />
        </mxCell>
        <mxCell id="vsbV7NBmptpupJyhPPDP-45" value="Да" style="text;html=1;strokeColor=none;fillColor=none;align=center;verticalAlign=middle;whiteSpace=wrap;rounded=0;" vertex="1" parent="1">
          <mxGeometry x="384" y="470" width="60" height="30" as="geometry" />
        </mxCell>
        <mxCell id="vsbV7NBmptpupJyhPPDP-53" value="" style="edgeStyle=orthogonalEdgeStyle;rounded=0;orthogonalLoop=1;jettySize=auto;html=1;exitX=0.5;exitY=1;exitDx=0;exitDy=0;" edge="1" parent="1" source="vsbV7NBmptpupJyhPPDP-46">
          <mxGeometry relative="1" as="geometry">
            <mxPoint x="520" y="690" as="targetPoint" />
          </mxGeometry>
        </mxCell>
        <mxCell id="vsbV7NBmptpupJyhPPDP-46" value="1. Записываем в буфер точку&lt;br&gt;2. Мигаем желтым светодиодом" style="whiteSpace=wrap;html=1;" vertex="1" parent="1">
          <mxGeometry x="600" y="570" width="120" height="60" as="geometry" />
        </mxCell>
        <mxCell id="vsbV7NBmptpupJyhPPDP-48" value="Нет" style="text;html=1;strokeColor=none;fillColor=none;align=center;verticalAlign=middle;whiteSpace=wrap;rounded=0;" vertex="1" parent="1">
          <mxGeometry x="610" y="470" width="60" height="30" as="geometry" />
        </mxCell>
        <mxCell id="vsbV7NBmptpupJyhPPDP-55" value="" style="edgeStyle=orthogonalEdgeStyle;rounded=0;orthogonalLoop=1;jettySize=auto;html=1;" edge="1" parent="1" source="vsbV7NBmptpupJyhPPDP-49" target="vsbV7NBmptpupJyhPPDP-54">
          <mxGeometry relative="1" as="geometry">
            <Array as="points">
              <mxPoint x="460" y="730" />
              <mxPoint x="460" y="790" />
              <mxPoint x="470" y="790" />
              <mxPoint x="470" y="740" />
              <mxPoint x="390" y="740" />
            </Array>
          </mxGeometry>
        </mxCell>
        <mxCell id="vsbV7NBmptpupJyhPPDP-62" value="" style="edgeStyle=orthogonalEdgeStyle;rounded=0;orthogonalLoop=1;jettySize=auto;html=1;endArrow=none;endFill=0;" edge="1" parent="1" source="vsbV7NBmptpupJyhPPDP-49">
          <mxGeometry relative="1" as="geometry">
            <mxPoint x="390" y="990" as="targetPoint" />
            <Array as="points">
              <mxPoint x="610" y="730" />
              <mxPoint x="610" y="990" />
            </Array>
          </mxGeometry>
        </mxCell>
        <mxCell id="vsbV7NBmptpupJyhPPDP-49" value="Буфер заполнен?" style="rhombus;whiteSpace=wrap;html=1;" vertex="1" parent="1">
          <mxGeometry x="480" y="690" width="80" height="80" as="geometry" />
        </mxCell>
        <mxCell id="vsbV7NBmptpupJyhPPDP-57" value="" style="edgeStyle=orthogonalEdgeStyle;rounded=0;orthogonalLoop=1;jettySize=auto;html=1;exitX=0.5;exitY=1;exitDx=0;exitDy=0;endArrow=none;endFill=0;" edge="1" parent="1" source="vsbV7NBmptpupJyhPPDP-54">
          <mxGeometry relative="1" as="geometry">
            <mxPoint x="100" y="393.6" as="targetPoint" />
          </mxGeometry>
        </mxCell>
        <mxCell id="vsbV7NBmptpupJyhPPDP-54" value="1. Дважды долго мигаем зеленым и красным светодиодом, предупреждая об ошибке&lt;br&gt;2. Переходим в режим вывода&lt;br&gt;3. Выводим сообщение и удаляем его из памяти&lt;br&gt;4. Переходим в режим ввода" style="whiteSpace=wrap;html=1;" vertex="1" parent="1">
          <mxGeometry x="330" y="750" width="120" height="220" as="geometry" />
        </mxCell>
        <mxCell id="vsbV7NBmptpupJyhPPDP-60" value="Нет" style="text;html=1;strokeColor=none;fillColor=none;align=center;verticalAlign=middle;whiteSpace=wrap;rounded=0;" vertex="1" parent="1">
          <mxGeometry x="960" y="350" width="60" height="30" as="geometry" />
        </mxCell>
        <mxCell id="vsbV7NBmptpupJyhPPDP-63" value="Да" style="text;html=1;strokeColor=none;fillColor=none;align=center;verticalAlign=middle;whiteSpace=wrap;rounded=0;" vertex="1" parent="1">
          <mxGeometry x="440" y="700" width="60" height="30" as="geometry" />
        </mxCell>
        <mxCell id="vsbV7NBmptpupJyhPPDP-64" value="Нет" style="text;html=1;strokeColor=none;fillColor=none;align=center;verticalAlign=middle;whiteSpace=wrap;rounded=0;" vertex="1" parent="1">
          <mxGeometry x="560" y="700" width="60" height="30" as="geometry" />
        </mxCell>
      </root>
    </mxGraphModel>
  </diagram>
</mxfile>
